 PTC IGES file: mdbt50q-p.igs                                           S      1
1H,,1H;,9HMDBT50Q-P,13Hmdbt50q-p.igs,                                   G      1
52HCreo Parametric by Parametric Technology Corporation,7H2012230,32,   G      2
38,7,38,15,9HMDBT50Q-P,1.,2,2HMM,32768,0.5,15H20180617.220145,          G      3
0.0020593,20.5938,4HJack,7HUnknown,10,0,15H20180617.220145;             G      4
     314       1       1       1       0       0       0       001000200D      1
     314       0       4       1       0                   COLOR       1D      2
     314       2       1       1       0       0       0       001000200D      3
     314       0       1       1       0                   COLOR       2D      4
     314       3       1       1       0       0       0       001000200D      5
     314       0       1       1       0                   COLOR       3D      6
     314       4       1       1       0       0       0       001000200D      7
     314       0       8       1       0                   COLOR       4D      8
     314       5       1       1       0       0       0       001000200D      9
     314       0       8       1       0                   COLOR       5D     10
     314       6       1       1       0       0       0       001000200D     11
     314       0       8       1       0                   COLOR       6D     12
     314       7       1       1       0       0       0       001000200D     13
     314       0       8       1       0                   COLOR       7D     14
     314       8       1       1       0       0       0       001000200D     15
     314       0       5       1       0                   COLOR       8D     16
     314       9       1       1       0       0       0       001000200D     17
     314       0       8       1       0                   COLOR       9D     18
     110      10       1       1       0       0       0       001010000D     19
     110       0       0       1       0                    LINE       1D     20
     110      11       1       1       0       0       0       001010000D     21
     110       0       0       1       0                    LINE       2D     22
     110      12       1       1       0       0       0       001010000D     23
     110       0       0       1       0                    LINE       3D     24
     110      13       1       1       0       0       0       001010000D     25
     110       0       0       1       0                    LINE       4D     26
     124      14       1       1       0       0       0       001000000D     27
     124       0       0       1       0                   XFORM       1D     28
     100      15       1       1       0       0      27       001010000D     29
     100       0       0       1       0                     ARC       1D     30
     110      16       1       1       0       0       0       001010000D     31
     110       0       0       1       0                    LINE       5D     32
     124      17       1       1       0       0       0       001000000D     33
     124       0       0       1       0                   XFORM       2D     34
     100      18       1       1       0       0      33       001010000D     35
     100       0       0       1       0                     ARC       2D     36
     110      19       1       1       0       0       0       001010000D     37
     110       0       0       1       0                    LINE       6D     38
     110      20       1       1       0       0       0       001010000D     39
     110       0       0       1       0                    LINE       7D     40
     110      21       1       1       0       0       0       001010000D     41
     110       0       0       1       0                    LINE       8D     42
     110      22       1       1       0       0       0       001010000D     43
     110       0       0       1       0                    LINE       9D     44
     110      23       1       1       0       0       0       001010000D     45
     110       0       0       1       0                    LINE      10D     46
     110      24       1       1       0       0       0       001010000D     47
     110       0       0       1       0                    LINE      11D     48
     110      25       1       1       0       0       0       001010000D     49
     110       0       0       1       0                    LINE      12D     50
     110      26       1       1       0       0       0       001010000D     51
     110       0       0       1       0                    LINE      13D     52
     110      27       1       1       0       0       0       001010000D     53
     110       0       0       1       0                    LINE      14D     54
     110      28       1       1       0       0       0       001010000D     55
     110       0       0       1       0                    LINE      15D     56
     110      29       1       1       0       0       0       001010000D     57
     110       0       0       1       0                    LINE      16D     58
     110      30       1       1       0       0       0       001010000D     59
     110       0       0       1       0                    LINE      17D     60
     110      31       1       1       0       0       0       001010000D     61
     110       0       0       1       0                    LINE      18D     62
     124      32       1       1       0       0       0       001000000D     63
     124       0       0       1       0                   XFORM       3D     64
     100      33       1       1       0       0      63       001010000D     65
     100       0       0       1       0                     ARC       3D     66
     110      34       1       1       0       0       0       001010000D     67
     110       0       0       1       0                    LINE      19D     68
     124      35       1       1       0       0       0       001000000D     69
     124       0       0       1       0                   XFORM       4D     70
     100      36       1       1       0       0      69       001010000D     71
     100       0       0       1       0                     ARC       4D     72
     110      37       1       1       0       0       0       001010000D     73
     110       0       0       1       0                    LINE      20D     74
     110      38       1       1       0       0       0       001010000D     75
     110       0       0       1       0                    LINE      21D     76
     110      39       1       1       0       0       0       001010000D     77
     110       0       0       1       0                    LINE      22D     78
     110      40       1       1       0       0       0       001010000D     79
     110       0       0       1       0                    LINE      23D     80
     110      41       1       1       0       0       0       001010000D     81
     110       0       0       1       0                    LINE      24D     82
     110      42       1       1       0       0       0       001010000D     83
     110       0       0       1       0                    LINE      25D     84
     110      43       1       1       0       0       0       001010000D     85
     110       0       0       1       0                    LINE      26D     86
     110      44       1       1       0       0       0       001010000D     87
     110       0       0       1       0                    LINE      27D     88
     110      45       1       1       0       0       0       001010000D     89
     110       0       0       1       0                    LINE      28D     90
     110      46       1       1       0       0       0       001010000D     91
     110       0       0       1       0                    LINE      29D     92
     124      47       1       1       0       0       0       001000000D     93
     124       0       0       1       0                   XFORM       5D     94
     100      48       1       1       0       0      93       001010000D     95
     100       0       0       1       0                     ARC       5D     96
     110      49       1       1       0       0       0       001010000D     97
     110       0       0       1       0                    LINE      30D     98
     110      50       1       1       0       0       0       001010000D     99
     110       0       0       1       0                    LINE      31D    100
     124      51       1       1       0       0       0       001000000D    101
     124       0       0       1       0                   XFORM       6D    102
     100      52       1       1       0       0     101       001010000D    103
     100       0       0       1       0                     ARC       6D    104
     110      53       1       1       0       0       0       001010000D    105
     110       0       0       1       0                    LINE      32D    106
     110      54       1       1       0       0       0       001010000D    107
     110       0       0       1       0                    LINE      33D    108
     110      55       1       1       0       0       0       001010000D    109
     110       0       0       1       0                    LINE      34D    110
     128      56       1       1       0       0       0       001010000D    111
     128       0       0       4       0                  SPLSRF       1D    112
     102      60       1       1       0       0       0       001010000D    113
     102       0       0       1       0                  CCURVE       1D    114
     110      61       1       1       0       0       0       001010500D    115
     110       0       0       1       0                    LINE      35D    116
     110      62       1       1       0       0       0       001010500D    117
     110       0       0       1       0                    LINE      36D    118
     110      63       1       1       0       0       0       001010500D    119
     110       0       0       1       0                    LINE      37D    120
     110      64       1       1       0       0       0       001010500D    121
     110       0       0       1       0                    LINE      38D    122
     102      65       1       1       0       0       0       001010500D    123
     102       0       0       1       0                  CCURVE       2D    124
     142      66       1       1       0       0       0       001010500D    125
     142       0       0       1       0                  UV_BND       1D    126
     110      67       1       1       0       0       0       001010000D    127
     110       0       0       1       0                    LINE      39D    128
     110      68       1       1       0       0       0       001010000D    129
     110       0       0       1       0                    LINE      40D    130
     102      69       1       1       0       0       0       001010000D    131
     102       0       0       1       0                  CCURVE       3D    132
     126      70       1       1       0       0       0       001010500D    133
     126       0       0      14       0                B_SPLINE       1D    134
     110      84       1       1       0       0       0       001010500D    135
     110       0       0       1       0                    LINE      41D    136
     126      85       1       1       0       0       0       001010500D    137
     126       0       0      14       0                B_SPLINE       2D    138
     110      99       1       1       0       0       0       001010500D    139
     110       0       0       1       0                    LINE      42D    140
     102     100       1       1       0       0       0       001010500D    141
     102       0       0       1       0                  CCURVE       4D    142
     142     101       1       1       0       0       0       001010500D    143
     142       0       0       1       0                  UV_BND       2D    144
     144     102       1       1       0       0       0       000000000D    145
     144       0       0       1       0                 TRM_SRF       1D    146
     128     103       1       1       0       0       0       001010000D    147
     128       0       0       6       0                  SPLSRF       2D    148
     110     109       1       1       0       0       0       001010000D    149
     110       0       0       1       0                    LINE      43D    150
     110     110       1       1       0       0       0       001010000D    151
     110       0       0       1       0                    LINE      44D    152
     102     111       1       1       0       0       0       001010000D    153
     102       0       0       1       0                  CCURVE       5D    154
     110     112       1       1       0       0       0       001010500D    155
     110       0       0       1       0                    LINE      45D    156
     110     113       1       1       0       0       0       001010500D    157
     110       0       0       1       0                    LINE      46D    158
     110     114       1       1       0       0       0       001010500D    159
     110       0       0       1       0                    LINE      47D    160
     110     115       1       1       0       0       0       001010500D    161
     110       0       0       1       0                    LINE      48D    162
     102     116       1       1       0       0       0       001010500D    163
     102       0       0       1       0                  CCURVE       6D    164
     142     117       1       1       0       0       0       001010500D    165
     142       0       0       1       0                  UV_BND       3D    166
     144     118       1       1       0       0       0       000000000D    167
     144       0       0       1       0                 TRM_SRF       2D    168
     128     119       1       1       0       0       0       001010000D    169
     128       0       0       6       0                  SPLSRF       3D    170
     110     125       1       1       0       0       0       001010000D    171
     110       0       0       1       0                    LINE      49D    172
     110     126       1       1       0       0       0       001010000D    173
     110       0       0       1       0                    LINE      50D    174
     102     127       1       1       0       0       0       001010000D    175
     102       0       0       1       0                  CCURVE       7D    176
     110     128       1       1       0       0       0       001010500D    177
     110       0       0       1       0                    LINE      51D    178
     110     129       1       1       0       0       0       001010500D    179
     110       0       0       1       0                    LINE      52D    180
     110     130       1       1       0       0       0       001010500D    181
     110       0       0       1       0                    LINE      53D    182
     110     131       1       1       0       0       0       001010500D    183
     110       0       0       1       0                    LINE      54D    184
     102     132       1       1       0       0       0       001010500D    185
     102       0       0       1       0                  CCURVE       8D    186
     142     133       1       1       0       0       0       001010500D    187
     142       0       0       1       0                  UV_BND       4D    188
     144     134       1       1       0       0       0       000000000D    189
     144       0       0       1       0                 TRM_SRF       3D    190
     128     135       1       1       0       0       0       001010000D    191
     128       0       0       6       0                  SPLSRF       4D    192
     110     141       1       1       0       0       0       001010000D    193
     110       0       0       1       0                    LINE      55D    194
     110     142       1       1       0       0       0       001010000D    195
     110       0       0       1       0                    LINE      56D    196
     102     143       1       1       0       0       0       001010000D    197
     102       0       0       1       0                  CCURVE       9D    198
     110     144       1       1       0       0       0       001010500D    199
     110       0       0       1       0                    LINE      57D    200
     110     145       1       1       0       0       0       001010500D    201
     110       0       0       1       0                    LINE      58D    202
     110     146       1       1       0       0       0       001010500D    203
     110       0       0       1       0                    LINE      59D    204
     110     147       1       1       0       0       0       001010500D    205
     110       0       0       1       0                    LINE      60D    206
     102     148       1       1       0       0       0       001010500D    207
     102       0       0       1       0                  CCURVE      10D    208
     142     149       1       1       0       0       0       001010500D    209
     142       0       0       1       0                  UV_BND       5D    210
     144     150       1       1       0       0       0       000000000D    211
     144       0       0       1       0                 TRM_SRF       4D    212
     128     151       1       1       0       0       0       001010000D    213
     128       0       0       6       0                  SPLSRF       5D    214
     110     157       1       1       0       0       0       001010000D    215
     110       0       0       1       0                    LINE      61D    216
     110     158       1       1       0       0       0       001010000D    217
     110       0       0       1       0                    LINE      62D    218
     102     159       1       1       0       0       0       001010000D    219
     102       0       0       1       0                  CCURVE      11D    220
     110     160       1       1       0       0       0       001010500D    221
     110       0       0       1       0                    LINE      63D    222
     110     161       1       1       0       0       0       001010500D    223
     110       0       0       1       0                    LINE      64D    224
     110     162       1       1       0       0       0       001010500D    225
     110       0       0       1       0                    LINE      65D    226
     110     163       1       1       0       0       0       001010500D    227
     110       0       0       1       0                    LINE      66D    228
     102     164       1       1       0       0       0       001010500D    229
     102       0       0       1       0                  CCURVE      12D    230
     142     165       1       1       0       0       0       001010500D    231
     142       0       0       1       0                  UV_BND       6D    232
     144     166       1       1       0       0       0       000000000D    233
     144       0       0       1       0                 TRM_SRF       5D    234
     128     167       1       1       0       0       0       001010000D    235
     128       0       0       4       0                  SPLSRF       6D    236
     102     171       1       1       0       0       0       001010000D    237
     102       0       0       1       0                  CCURVE      13D    238
     110     172       1       1       0       0       0       001010500D    239
     110       0       0       1       0                    LINE      67D    240
     110     173       1       1       0       0       0       001010500D    241
     110       0       0       1       0                    LINE      68D    242
     110     174       1       1       0       0       0       001010500D    243
     110       0       0       1       0                    LINE      69D    244
     110     175       1       1       0       0       0       001010500D    245
     110       0       0       1       0                    LINE      70D    246
     102     176       1       1       0       0       0       001010500D    247
     102       0       0       1       0                  CCURVE      14D    248
     142     177       1       1       0       0       0       001010500D    249
     142       0       0       1       0                  UV_BND       7D    250
     110     178       1       1       0       0       0       001010000D    251
     110       0       0       1       0                    LINE      71D    252
     110     179       1       1       0       0       0       001010000D    253
     110       0       0       1       0                    LINE      72D    254
     124     180       1       1       0       0       0       001000000D    255
     124       0       0       1       0                   XFORM       7D    256
     100     181       1       1       0       0     255       001010000D    257
     100       0       0       1       0                     ARC       7D    258
     124     182       1       1       0       0       0       001000000D    259
     124       0       0       1       0                   XFORM       8D    260
     100     183       1       1       0       0     259       001010000D    261
     100       0       0       1       0                     ARC       8D    262
     110     184       1       1       0       0       0       001010000D    263
     110       0       0       1       0                    LINE      73D    264
     110     185       1       1       0       0       0       001010000D    265
     110       0       0       1       0                    LINE      74D    266
     110     186       1       1       0       0       0       001010000D    267
     110       0       0       1       0                    LINE      75D    268
     102     187       1       1       0       0       0       001010000D    269
     102       0       0       1       0                  CCURVE      15D    270
     110     188       1       1       0       0       0       001010500D    271
     110       0       0       1       0                    LINE      76D    272
     110     189       1       1       0       0       0       001010500D    273
     110       0       0       1       0                    LINE      77D    274
     126     190       1       1       0       0       0       001010500D    275
     126       0       0       9       0                B_SPLINE       3D    276
     110     199       1       1       0       0       0       001010500D    277
     110       0       0       1       0                    LINE      78D    278
     126     200       1       1       0       0       0       001010500D    279
     126       0       0       9       0                B_SPLINE       4D    280
     110     209       1       1       0       0       0       001010500D    281
     110       0       0       1       0                    LINE      79D    282
     110     210       1       1       0       0       0       001010500D    283
     110       0       0       1       0                    LINE      80D    284
     110     211       1       1       0       0       0       001010500D    285
     110       0       0       1       0                    LINE      81D    286
     102     212       1       1       0       0       0       001010500D    287
     102       0       0       1       0                  CCURVE      16D    288
     142     213       1       1       0       0       0       001010500D    289
     142       0       0       1       0                  UV_BND       8D    290
     144     214       1       1       0       0       0       000000000D    291
     144       0       0       1       0                 TRM_SRF       6D    292
     128     215       1       1       0       0       0       001010000D    293
     128       0       0       6       0                  SPLSRF       7D    294
     110     221       1       1       0       0       0       001010000D    295
     110       0       0       1       0                    LINE      82D    296
     110     222       1       1       0       0       0       001010000D    297
     110       0       0       1       0                    LINE      83D    298
     102     223       1       1       0       0       0       001010000D    299
     102       0       0       1       0                  CCURVE      17D    300
     110     224       1       1       0       0       0       001010500D    301
     110       0       0       1       0                    LINE      84D    302
     110     225       1       1       0       0       0       001010500D    303
     110       0       0       1       0                    LINE      85D    304
     110     226       1       1       0       0       0       001010500D    305
     110       0       0       1       0                    LINE      86D    306
     110     227       1       1       0       0       0       001010500D    307
     110       0       0       1       0                    LINE      87D    308
     102     228       1       1       0       0       0       001010500D    309
     102       0       0       1       0                  CCURVE      18D    310
     142     229       1       1       0       0       0       001010500D    311
     142       0       0       1       0                  UV_BND       9D    312
     144     230       1       1       0       0       0       000000000D    313
     144       0       0       1       0                 TRM_SRF       7D    314
     128     231       1       1       0       0       0       001010000D    315
     128       0       0       6       0                  SPLSRF       8D    316
     110     237       1       1       0       0       0       001010000D    317
     110       0       0       1       0                    LINE      88D    318
     110     238       1       1       0       0       0       001010000D    319
     110       0       0       1       0                    LINE      89D    320
     102     239       1       1       0       0       0       001010000D    321
     102       0       0       1       0                  CCURVE      19D    322
     110     240       1       1       0       0       0       001010500D    323
     110       0       0       1       0                    LINE      90D    324
     110     241       1       1       0       0       0       001010500D    325
     110       0       0       1       0                    LINE      91D    326
     110     242       1       1       0       0       0       001010500D    327
     110       0       0       1       0                    LINE      92D    328
     110     243       1       1       0       0       0       001010500D    329
     110       0       0       1       0                    LINE      93D    330
     110     244       1       1       0       0       0       001010500D    331
     110       0       0       1       0                    LINE      94D    332
     110     245       1       1       0       0       0       001010500D    333
     110       0       0       1       0                    LINE      95D    334
     102     246       1       1       0       0       0       001010500D    335
     102       0       0       1       0                  CCURVE      20D    336
     142     247       1       1       0       0       0       001010500D    337
     142       0       0       1       0                  UV_BND      10D    338
     144     248       1       1       0       0       0       000000000D    339
     144       0       0       1       0                 TRM_SRF       8D    340
     128     249       1       1       0       0       0       001010000D    341
     128       0       0       6       0                  SPLSRF       9D    342
     110     255       1       1       0       0       0       001010000D    343
     110       0       0       1       0                    LINE      96D    344
     110     256       1       1       0       0       0       001010000D    345
     110       0       0       1       0                    LINE      97D    346
     102     257       1       1       0       0       0       001010000D    347
     102       0       0       1       0                  CCURVE      21D    348
     110     258       1       1       0       0       0       001010500D    349
     110       0       0       1       0                    LINE      98D    350
     110     259       1       1       0       0       0       001010500D    351
     110       0       0       1       0                    LINE      99D    352
     110     260       1       1       0       0       0       001010500D    353
     110       0       0       1       0                    LINE     100D    354
     110     261       1       1       0       0       0       001010500D    355
     110       0       0       1       0                    LINE     101D    356
     102     262       1       1       0       0       0       001010500D    357
     102       0       0       1       0                  CCURVE      22D    358
     142     263       1       1       0       0       0       001010500D    359
     142       0       0       1       0                  UV_BND      11D    360
     144     264       1       1       0       0       0       000000000D    361
     144       0       0       1       0                 TRM_SRF       9D    362
     128     265       1       1       0       0       0       001010000D    363
     128       0       0       6       0                  SPLSRF      10D    364
     110     271       1       1       0       0       0       001010000D    365
     110       0       0       1       0                    LINE     102D    366
     110     272       1       1       0       0       0       001010000D    367
     110       0       0       1       0                    LINE     103D    368
     102     273       1       1       0       0       0       001010000D    369
     102       0       0       1       0                  CCURVE      23D    370
     110     274       1       1       0       0       0       001010500D    371
     110       0       0       1       0                    LINE     104D    372
     110     275       1       1       0       0       0       001010500D    373
     110       0       0       1       0                    LINE     105D    374
     110     276       1       1       0       0       0       001010500D    375
     110       0       0       1       0                    LINE     106D    376
     110     277       1       1       0       0       0       001010500D    377
     110       0       0       1       0                    LINE     107D    378
     102     278       1       1       0       0       0       001010500D    379
     102       0       0       1       0                  CCURVE      24D    380
     142     279       1       1       0       0       0       001010500D    381
     142       0       0       1       0                  UV_BND      12D    382
     144     280       1       1       0       0       0       000000000D    383
     144       0       0       1       0                 TRM_SRF      10D    384
     128     281       1       1       0       0       0       001010000D    385
     128       0       0       4       0                  SPLSRF      11D    386
     102     285       1       1       0       0       0       001010000D    387
     102       0       0       1       0                  CCURVE      25D    388
     110     286       1       1       0       0       0       001010500D    389
     110       0       0       1       0                    LINE     108D    390
     110     287       1       1       0       0       0       001010500D    391
     110       0       0       1       0                    LINE     109D    392
     110     288       1       1       0       0       0       001010500D    393
     110       0       0       1       0                    LINE     110D    394
     110     289       1       1       0       0       0       001010500D    395
     110       0       0       1       0                    LINE     111D    396
     102     290       1       1       0       0       0       001010500D    397
     102       0       0       1       0                  CCURVE      26D    398
     142     291       1       1       0       0       0       001010500D    399
     142       0       0       1       0                  UV_BND      13D    400
     144     292       1       1       0       0       0       000000000D    401
     144       0       0       1       0                 TRM_SRF      11D    402
     128     293       1       1       0       0       0       001010000D    403
     128       0       0       6       0                  SPLSRF      12D    404
     102     299       1       1       0       0       0       001010000D    405
     102       0       0       1       0                  CCURVE      27D    406
     126     300       1       1       0       0       0       001010500D    407
     126       0       0       9       0                B_SPLINE       5D    408
     110     309       1       1       0       0       0       001010500D    409
     110       0       0       1       0                    LINE     112D    410
     126     310       1       1       0       0       0       001010500D    411
     126       0       0       9       0                B_SPLINE       6D    412
     110     319       1       1       0       0       0       001010500D    413
     110       0       0       1       0                    LINE     113D    414
     102     320       1       1       0       0       0       001010500D    415
     102       0       0       1       0                  CCURVE      28D    416
     142     321       1       1       0       0       0       001010500D    417
     142       0       0       1       0                  UV_BND      14D    418
     144     322       1       1       0       0       0       000000000D    419
     144       0       0       1       0                 TRM_SRF      12D    420
     110     323       1       1       0       0       0       001010000D    421
     110       0       0       1       0                    LINE     114D    422
     110     324       1       1       0       0       0       001010000D    423
     110       0       0       2       0                    LINE     115D    424
     120     326       1       1       0       0       0       001010000D    425
     120       0       0       1       0                    SREV       1D    426
     102     327       1       1       0       0       0       001010000D    427
     102       0       0       1       0                  CCURVE      29D    428
     110     328       1       1       0       0       0       001010500D    429
     110       0       0       2       0                    LINE     116D    430
     110     330       1       1       0       0       0       001010500D    431
     110       0       0       2       0                    LINE     117D    432
     110     332       1       1       0       0       0       001010500D    433
     110       0       0       2       0                    LINE     118D    434
     110     334       1       1       0       0       0       001010500D    435
     110       0       0       2       0                    LINE     119D    436
     110     336       1       1       0       0       0       001010500D    437
     110       0       0       2       0                    LINE     120D    438
     102     338       1       1       0       0       0       001010500D    439
     102       0       0       1       0                  CCURVE      30D    440
     142     339       1       1       0       0       0       001010500D    441
     142       0       0       1       0                  UV_BND      15D    442
     144     340       1       1       0       0       0       000000000D    443
     144       0       0       1       0                 TRM_SRF      13D    444
     128     341       1       1       0       0       0       001010000D    445
     128       0       0       6       0                  SPLSRF      13D    446
     102     347       1       1       0       0       0       001010000D    447
     102       0       0       1       0                  CCURVE      31D    448
     110     348       1       1       0       0       0       001010500D    449
     110       0       0       1       0                    LINE     121D    450
     110     349       1       1       0       0       0       001010500D    451
     110       0       0       1       0                    LINE     122D    452
     110     350       1       1       0       0       0       001010500D    453
     110       0       0       1       0                    LINE     123D    454
     110     351       1       1       0       0       0       001010500D    455
     110       0       0       1       0                    LINE     124D    456
     102     352       1       1       0       0       0       001010500D    457
     102       0       0       1       0                  CCURVE      32D    458
     142     353       1       1       0       0       0       001010500D    459
     142       0       0       1       0                  UV_BND      16D    460
     144     354       1       1       0       0       0       000000000D    461
     144       0       0       1       0                 TRM_SRF      14D    462
     110     355       1       1       0       0       0       001010000D    463
     110       0       0       1       0                    LINE     125D    464
     110     356       1       1       0       0       0       001010000D    465
     110       0       0       2       0                    LINE     126D    466
     120     358       1       1       0       0       0       001010000D    467
     120       0       0       1       0                    SREV       2D    468
     102     359       1       1       0       0       0       001010000D    469
     102       0       0       1       0                  CCURVE      33D    470
     110     360       1       1       0       0       0       001010500D    471
     110       0       0       2       0                    LINE     127D    472
     110     362       1       1       0       0       0       001010500D    473
     110       0       0       2       0                    LINE     128D    474
     110     364       1       1       0       0       0       001010500D    475
     110       0       0       2       0                    LINE     129D    476
     110     366       1       1       0       0       0       001010500D    477
     110       0       0       2       0                    LINE     130D    478
     110     368       1       1       0       0       0       001010500D    479
     110       0       0       2       0                    LINE     131D    480
     102     370       1       1       0       0       0       001010500D    481
     102       0       0       1       0                  CCURVE      34D    482
     142     371       1       1       0       0       0       001010500D    483
     142       0       0       1       0                  UV_BND      17D    484
     144     372       1       1       0       0       0       000000000D    485
     144       0       0       1       0                 TRM_SRF      15D    486
     128     373       1       1       0       0       0       001010000D    487
     128       0       0       6       0                  SPLSRF      14D    488
     110     379       1       1       0       0       0       001010000D    489
     110       0       0       1       0                    LINE     132D    490
     102     380       1       1       0       0       0       001010000D    491
     102       0       0       1       0                  CCURVE      35D    492
     110     381       1       1       0       0       0       001010500D    493
     110       0       0       1       0                    LINE     133D    494
     110     382       1       1       0       0       0       001010500D    495
     110       0       0       1       0                    LINE     134D    496
     110     383       1       1       0       0       0       001010500D    497
     110       0       0       1       0                    LINE     135D    498
     110     384       1       1       0       0       0       001010500D    499
     110       0       0       1       0                    LINE     136D    500
     102     385       1       1       0       0       0       001010500D    501
     102       0       0       1       0                  CCURVE      36D    502
     142     386       1       1       0       0       0       001010500D    503
     142       0       0       1       0                  UV_BND      18D    504
     144     387       1       1       0       0       0       000000000D    505
     144       0       0       1       0                 TRM_SRF      16D    506
314,1.1D0,1.2D0,1D2;                                                   1P      1
314,3.92D1,1.2D0,1.2D0;                                                3P      2
314,4.1D1,0D0,2.2D1;                                                   5P      3
314,6.952D1,7.426D1,7.9D1;                                             7P      4
314,7.84314D1,7.84314D1,7.84314D1;                                     9P      5
314,8.784D1,9.49D1,1D2;                                               11P      6
314,9.6D1,9.6D1,9.6D1;                                                13P      7
314,9.8D1,6.27D1,0D0;                                                 15P      8
314,1D2,1D2,9.49D1;                                                   17P      9
110,-5.25D0,0D0,-7.75D0,-5.25D0,0D0,7.75D0;                           19P     10
110,-5.25D0,0D0,7.75D0,5.25D0,0D0,7.75D0;                             21P     11
110,5.25D0,0D0,7.75D0,5.25D0,0D0,-7.75D0;                             23P     12
110,5.25D0,0D0,-7.75D0,-5.25D0,0D0,-7.75D0;                           25P     13
124,0D0,-1D0,0D0,1.5D0,0D0,0D0,-1D0,0D0,1D0,0D0,0D0,-3.6D0;           27P     14
100,0D0,0D0,0D0,2.5D-1,0D0,-2.5D-1,0D0;                               29P     15
110,2.9D0,0D0,-3.85D0,1.5D0,0D0,-3.85D0;                              31P     16
124,0D0,1D0,0D0,2.9D0,0D0,0D0,-1D0,0D0,-1D0,0D0,0D0,-3.6D0;           33P     17
100,0D0,0D0,0D0,2.5D-1,0D0,-2.5D-1,0D0;                               35P     18
110,1.5D0,0D0,-3.35D0,2.9D0,0D0,-3.35D0;                              37P     19
110,-5.25D0,0D0,-7.75D0,-5.25D0,8D-1,-7.75D0;                         39P     20
110,5.25D0,0D0,-7.75D0,5.25D0,8D-1,-7.75D0;                           41P     21
110,5.25D0,0D0,7.75D0,5.25D0,8D-1,7.75D0;                             43P     22
110,-5.25D0,0D0,7.75D0,-5.25D0,8D-1,7.75D0;                           45P     23
110,-5.25D0,8D-1,-7.75D0,-5.25D0,8D-1,7.75D0;                         47P     24
110,5.25D0,8D-1,-7.75D0,-5.25D0,8D-1,-7.75D0;                         49P     25
110,5.25D0,8D-1,7.75D0,5.25D0,8D-1,-7.75D0;                           51P     26
110,-5.25D0,8D-1,7.75D0,5.25D0,8D-1,7.75D0;                           53P     27
110,-4.75D0,8D-1,-3.6D0,-4.75D0,8D-1,7.3D0;                           55P     28
110,-4.75D0,8D-1,7.3D0,4.75D0,8D-1,7.3D0;                             57P     29
110,4.75D0,8D-1,7.3D0,4.75D0,8D-1,-3.6D0;                             59P     30
110,4.75D0,8D-1,-3.6D0,3.15D0,8D-1,-3.6D0;                            61P     31
124,1D0,0D0,0D0,2.9D0,0D0,0D0,1D0,8D-1,0D0,-1D0,0D0,-3.6D0;           63P     32
100,0D0,0D0,0D0,2.5D-1,0D0,0D0,2.5D-1;                                65P     33
110,1.5D0,8D-1,-3.85D0,2.9D0,8D-1,-3.85D0;                            67P     34
124,0D0,-1D0,0D0,1.5D0,0D0,0D0,1D0,8D-1,-1D0,0D0,0D0,-3.6D0;          69P     35
100,0D0,0D0,0D0,2.5D-1,0D0,0D0,2.5D-1;                                71P     36
110,1.25D0,8D-1,-3.6D0,-4.75D0,8D-1,-3.6D0;                           73P     37
110,-4.75D0,8D-1,-3.6D0,-4.75D0,2D0,-3.6D0;                           75P     38
110,4.75D0,8D-1,-3.6D0,4.75D0,2D0,-3.6D0;                             77P     39
110,4.75D0,8D-1,7.3D0,4.75D0,2D0,7.3D0;                               79P     40
110,-4.75D0,8D-1,7.3D0,-4.75D0,2D0,7.3D0;                             81P     41
110,-4.75D0,2D0,-3.6D0,-4.75D0,2D0,7.3D0;                             83P     42
110,4.75D0,2D0,-3.6D0,-4.75D0,2D0,-3.6D0;                             85P     43
110,4.75D0,2D0,7.3D0,4.75D0,2D0,-3.6D0;                               87P     44
110,-4.75D0,2D0,7.3D0,4.75D0,2D0,7.3D0;                               89P     45
110,3.15D0,8D-1,-3.6D0,1.25D0,8D-1,-3.6D0;                            91P     46
124,-1D0,0D0,0D0,1.5D0,0D0,0D0,1D0,8D-1,0D0,1D0,0D0,-3.6D0;           93P     47
100,0D0,0D0,0D0,2.5D-1,0D0,0D0,2.5D-1;                                95P     48
110,1.5D0,0D0,-3.85D0,1.5D0,8D-1,-3.85D0;                             97P     49
110,2.9D0,8D-1,-3.85D0,2.9D0,0D0,-3.85D0;                             99P     50
124,0D0,1D0,0D0,2.9D0,0D0,0D0,1D0,8D-1,1D0,0D0,0D0,-3.6D0;           101P     51
100,0D0,0D0,0D0,2.5D-1,0D0,0D0,2.5D-1;                               103P     52
110,2.9D0,0D0,-3.35D0,2.9D0,8D-1,-3.35D0;                            105P     53
110,1.5D0,8D-1,-3.35D0,2.9D0,8D-1,-3.35D0;                           107P     54
110,1.5D0,8D-1,-3.35D0,1.5D0,0D0,-3.35D0;                            109P     55
128,1,1,1,1,0,0,1,0,0,-5.46D0,-5.46D0,5.46D0,5.46D0,-8.06D0,         111P     56
-8.06D0,8.06D0,8.06D0,1D0,1D0,1D0,1D0,-5.46D0,0D0,8.06D0,5.46D0,     111P     57
0D0,8.06D0,-5.46D0,0D0,-8.06D0,5.46D0,0D0,-8.06D0,-5.46D0,           111P     58
5.46D0,-8.06D0,8.06D0;                                               111P     59
102,4,19,21,23,25;                                                   113P     60
110,-5.25D0,7.75D0,0D0,-5.25D0,-7.75D0,0D0;                          115P     61
110,-5.25D0,-7.75D0,0D0,5.25D0,-7.75D0,0D0;                          117P     62
110,5.25D0,-7.75D0,0D0,5.25D0,7.75D0,0D0;                            119P     63
110,5.25D0,7.75D0,0D0,-5.25D0,7.75D0,0D0;                            121P     64
102,4,115,117,119,121;                                               123P     65
142,0,111,123,113,1;                                                 125P     66
110,1.5D0,0D0,-3.85D0,2.9D0,0D0,-3.85D0;                             127P     67
110,2.9D0,0D0,-3.35D0,1.5D0,0D0,-3.35D0;                             129P     68
102,4,29,127,35,129;                                                 131P     69
126,13,3,0,0,1,0,0D0,0D0,0D0,0D0,9.090909090909D-2,                  133P     70
1.818181818182D-1,2.727272727273D-1,3.636363636364D-1,               133P     71
4.545454545455D-1,5.454545454545D-1,6.363636363636D-1,               133P     72
7.272727272727D-1,8.181818181818D-1,9.090909090909D-1,1D0,1D0,       133P     73
1D0,1D0,1D0,1D0,1D0,1D0,1D0,1D0,1D0,1D0,1D0,1D0,1D0,1D0,1D0,1D0,     133P     74
1.5D0,3.35D0,0D0,1.476172896737D0,3.349904481483D0,0D0,              133P     75
1.428615848447D0,3.356887905996D0,0D0,1.362986350068D0,              133P     76
3.386796146366D0,0D0,1.308477525098D0,3.434047209292D0,0D0,          133P     77
1.269479188009D0,3.494723915548D0,0D0,1.249157729834D0,              133P     78
3.563934609014D0,0D0,1.249157729834D0,3.636065390986D0,0D0,          133P     79
1.269479188009D0,3.705276084452D0,0D0,1.308477525098D0,              133P     80
3.765952790708D0,0D0,1.362986350068D0,3.813203853634D0,0D0,          133P     81
1.428615848447D0,3.843112094004D0,0D0,1.476172896737D0,              133P     82
3.850095518517D0,0D0,1.5D0,3.85D0,0D0,0D0,1D0,0D0,0D0,1D0;           133P     83
110,1.5D0,3.85D0,0D0,2.9D0,3.85D0,0D0;                               135P     84
126,13,3,0,0,1,0,0D0,0D0,0D0,0D0,9.090909090909D-2,                  137P     85
1.818181818182D-1,2.727272727273D-1,3.636363636364D-1,               137P     86
4.545454545455D-1,5.454545454545D-1,6.363636363636D-1,               137P     87
7.272727272727D-1,8.181818181818D-1,9.090909090909D-1,1D0,1D0,       137P     88
1D0,1D0,1D0,1D0,1D0,1D0,1D0,1D0,1D0,1D0,1D0,1D0,1D0,1D0,1D0,1D0,     137P     89
2.9D0,3.85D0,0D0,2.923827103263D0,3.850095518517D0,0D0,              137P     90
2.971384151553D0,3.843112094004D0,0D0,3.037013649932D0,              137P     91
3.813203853634D0,0D0,3.091522474902D0,3.765952790708D0,0D0,          137P     92
3.130520811991D0,3.705276084452D0,0D0,3.150842270166D0,              137P     93
3.636065390986D0,0D0,3.150842270166D0,3.563934609014D0,0D0,          137P     94
3.130520811991D0,3.494723915548D0,0D0,3.091522474902D0,              137P     95
3.434047209292D0,0D0,3.037013649932D0,3.386796146366D0,0D0,          137P     96
2.971384151553D0,3.356887905996D0,0D0,2.923827103263D0,              137P     97
3.349904481483D0,0D0,2.9D0,3.35D0,0D0,0D0,1D0,0D0,0D0,1D0;           137P     98
110,2.9D0,3.35D0,0D0,1.5D0,3.35D0,0D0;                               139P     99
102,4,133,135,137,139;                                               141P    100
142,0,111,141,131,1;                                                 143P    101
144,111,1,1,125,143;                                                 145P    102
128,1,1,1,1,0,0,1,0,0,-3.1D-1,-3.1D-1,1.581D1,1.581D1,               147P    103
-2.471257169944D-2,-2.471257169944D-2,8.247125716994D-1,             147P    104
8.247125716994D-1,1D0,1D0,1D0,1D0,-5.25D0,-2.471257169944D-2,        147P    105
-8.06D0,-5.25D0,-2.471257169944D-2,8.06D0,-5.25D0,                   147P    106
8.247125716994D-1,-8.06D0,-5.25D0,8.247125716994D-1,8.06D0,          147P    107
-3.1D-1,1.581D1,-2.471257169944D-2,8.247125716994D-1;                147P    108
110,-5.25D0,8D-1,7.75D0,-5.25D0,8D-1,-7.75D0;                        149P    109
110,-5.25D0,8D-1,-7.75D0,-5.25D0,0D0,-7.75D0;                        151P    110
102,4,19,45,149,151;                                                 153P    111
110,0D0,0D0,0D0,1.55D1,0D0,0D0;                                      155P    112
110,1.55D1,0D0,0D0,1.55D1,8D-1,0D0;                                  157P    113
110,1.55D1,8D-1,0D0,0D0,8D-1,0D0;                                    159P    114
110,0D0,8D-1,0D0,0D0,0D0,0D0;                                        161P    115
102,4,155,157,159,161;                                               163P    116
142,0,147,163,153,1;                                                 165P    117
144,147,1,0,165;                                                     167P    118
128,1,1,1,1,0,0,1,0,0,-2.1D-1,-2.1D-1,1.071D1,1.071D1,               169P    119
-2.471257169944D-2,-2.471257169944D-2,8.247125716994D-1,             169P    120
8.247125716994D-1,1D0,1D0,1D0,1D0,5.46D0,-2.471257169944D-2,         169P    121
-7.75D0,-5.46D0,-2.471257169944D-2,-7.75D0,5.46D0,                   169P    122
8.247125716994D-1,-7.75D0,-5.46D0,8.247125716994D-1,-7.75D0,         169P    123
-2.1D-1,1.071D1,-2.471257169944D-2,8.247125716994D-1;                169P    124
110,-5.25D0,8D-1,-7.75D0,5.25D0,8D-1,-7.75D0;                        171P    125
110,5.25D0,8D-1,-7.75D0,5.25D0,0D0,-7.75D0;                          173P    126
102,4,25,39,171,173;                                                 175P    127
110,0D0,0D0,0D0,1.05D1,0D0,0D0;                                      177P    128
110,1.05D1,0D0,0D0,1.05D1,8D-1,0D0;                                  179P    129
110,1.05D1,8D-1,0D0,0D0,8D-1,0D0;                                    181P    130
110,0D0,8D-1,0D0,0D0,0D0,0D0;                                        183P    131
102,4,177,179,181,183;                                               185P    132
142,0,169,185,175,1;                                                 187P    133
144,169,1,0,187;                                                     189P    134
128,1,1,1,1,0,0,1,0,0,-3.1D-1,-3.1D-1,1.581D1,1.581D1,               191P    135
-2.471257169944D-2,-2.471257169944D-2,8.247125716994D-1,             191P    136
8.247125716994D-1,1D0,1D0,1D0,1D0,5.25D0,-2.471257169944D-2,         191P    137
8.06D0,5.25D0,-2.471257169944D-2,-8.06D0,5.25D0,                     191P    138
8.247125716994D-1,8.06D0,5.25D0,8.247125716994D-1,-8.06D0,           191P    139
-3.1D-1,1.581D1,-2.471257169944D-2,8.247125716994D-1;                191P    140
110,5.25D0,8D-1,-7.75D0,5.25D0,8D-1,7.75D0;                          193P    141
110,5.25D0,8D-1,7.75D0,5.25D0,0D0,7.75D0;                            195P    142
102,4,23,41,193,195;                                                 197P    143
110,0D0,0D0,0D0,1.55D1,0D0,0D0;                                      199P    144
110,1.55D1,0D0,0D0,1.55D1,8D-1,0D0;                                  201P    145
110,1.55D1,8D-1,0D0,0D0,8D-1,0D0;                                    203P    146
110,0D0,8D-1,0D0,0D0,0D0,0D0;                                        205P    147
102,4,199,201,203,205;                                               207P    148
142,0,191,207,197,1;                                                 209P    149
144,191,1,0,209;                                                     211P    150
128,1,1,1,1,0,0,1,0,0,-2.1D-1,-2.1D-1,1.071D1,1.071D1,               213P    151
-2.471257169944D-2,-2.471257169944D-2,8.247125716994D-1,             213P    152
8.247125716994D-1,1D0,1D0,1D0,1D0,-5.46D0,-2.471257169944D-2,        213P    153
7.75D0,5.46D0,-2.471257169944D-2,7.75D0,-5.46D0,                     213P    154
8.247125716994D-1,7.75D0,5.46D0,8.247125716994D-1,7.75D0,            213P    155
-2.1D-1,1.071D1,-2.471257169944D-2,8.247125716994D-1;                213P    156
110,5.25D0,8D-1,7.75D0,-5.25D0,8D-1,7.75D0;                          215P    157
110,-5.25D0,8D-1,7.75D0,-5.25D0,0D0,7.75D0;                          217P    158
102,4,21,43,215,217;                                                 219P    159
110,0D0,0D0,0D0,1.05D1,0D0,0D0;                                      221P    160
110,1.05D1,0D0,0D0,1.05D1,8D-1,0D0;                                  223P    161
110,1.05D1,8D-1,0D0,0D0,8D-1,0D0;                                    225P    162
110,0D0,8D-1,0D0,0D0,0D0,0D0;                                        227P    163
102,4,221,223,225,227;                                               229P    164
142,0,213,229,219,1;                                                 231P    165
144,213,1,0,231;                                                     233P    166
128,1,1,1,1,0,0,1,0,0,-5.46D0,-5.46D0,5.46D0,5.46D0,-8.06D0,         235P    167
-8.06D0,8.06D0,8.06D0,1D0,1D0,1D0,1D0,-5.46D0,8D-1,8.06D0,           235P    168
5.46D0,8D-1,8.06D0,-5.46D0,8D-1,-8.06D0,5.46D0,8D-1,-8.06D0,         235P    169
-5.46D0,5.46D0,-8.06D0,8.06D0;                                       235P    170
102,4,47,53,51,49;                                                   237P    171
110,-5.25D0,7.75D0,0D0,-5.25D0,-7.75D0,0D0;                          239P    172
110,-5.25D0,-7.75D0,0D0,5.25D0,-7.75D0,0D0;                          241P    173
110,5.25D0,-7.75D0,0D0,5.25D0,7.75D0,0D0;                            243P    174
110,5.25D0,7.75D0,0D0,-5.25D0,7.75D0,0D0;                            245P    175
102,4,239,241,243,245;                                               247P    176
142,0,235,247,237,1;                                                 249P    177
110,-4.75D0,8D-1,7.3D0,-4.75D0,8D-1,-3.6D0;                          251P    178
110,-4.75D0,8D-1,-3.6D0,1.25D0,8D-1,-3.6D0;                          253P    179
124,-1D0,0D0,0D0,1.5D0,0D0,0D0,-1D0,8D-1,0D0,-1D0,0D0,-3.6D0;        255P    180
100,0D0,0D0,0D0,2.5D-1,0D0,0D0,2.5D-1;                               257P    181
124,0D0,1D0,0D0,2.9D0,0D0,0D0,-1D0,8D-1,-1D0,0D0,0D0,-3.6D0;         259P    182
100,0D0,0D0,0D0,2.5D-1,0D0,0D0,2.5D-1;                               261P    183
110,3.15D0,8D-1,-3.6D0,4.75D0,8D-1,-3.6D0;                           263P    184
110,4.75D0,8D-1,-3.6D0,4.75D0,8D-1,7.3D0;                            265P    185
110,4.75D0,8D-1,7.3D0,-4.75D0,8D-1,7.3D0;                            267P    186
102,8,251,253,257,67,261,263,265,267;                                269P    187
110,-4.75D0,-7.3D0,0D0,-4.75D0,3.6D0,0D0;                            271P    188
110,-4.75D0,3.6D0,0D0,1.25D0,3.6D0,0D0;                              273P    189
126,8,3,0,0,1,0,0D0,0D0,0D0,0D0,1.665663270859D-1,                   275P    190
3.331500442888D-1,4.997684222811D-1,6.664384948890D-1,               275P    191
8.331308188146D-1,1D0,1D0,1D0,1D0,1D0,1D0,1D0,1D0,1D0,1D0,1D0,       275P    192
1D0,1D0,1.25D0,3.6D0,0D0,1.249932359059D0,3.621820594114D0,0D0,      275P    193
1.255769015455D0,3.665402351754D0,0D0,1.280965374312D0,              275P    194
3.726378243151D0,0D0,1.321135157319D0,3.778743533983D0,0D0,          275P    195
1.373484446933D0,3.818958602351D0,0D0,1.434503473668D0,              275P    196
3.844213004761D0,0D0,1.478139277592D0,3.850068018434D0,0D0,          275P    197
1.5D0,3.85D0,0D0,0D0,1D0,0D0,0D0,1D0;                                275P    198
110,1.5D0,3.85D0,0D0,2.9D0,3.85D0,0D0;                               277P    199
126,8,3,0,0,1,0,0D0,0D0,0D0,0D0,1.668691811854D-1,                   279P    200
3.335615051110D-1,5.002315777189D-1,6.668499557112D-1,               279P    201
8.334336729141D-1,1D0,1D0,1D0,1D0,1D0,1D0,1D0,1D0,1D0,1D0,1D0,       279P    202
1D0,1D0,2.9D0,3.85D0,0D0,2.921860722408D0,3.850068018434D0,0D0,      279P    203
2.965496526332D0,3.844213004761D0,0D0,3.026515553067D0,              279P    204
3.818958602351D0,0D0,3.078864842681D0,3.778743533983D0,0D0,          279P    205
3.119034625688D0,3.726378243151D0,0D0,3.144230984545D0,              279P    206
3.665402351754D0,0D0,3.150067640941D0,3.621820594114D0,0D0,          279P    207
3.15D0,3.6D0,0D0,0D0,1D0,0D0,0D0,1D0;                                279P    208
110,3.15D0,3.6D0,0D0,4.75D0,3.6D0,0D0;                               281P    209
110,4.75D0,3.6D0,0D0,4.75D0,-7.3D0,0D0;                              283P    210
110,4.75D0,-7.3D0,0D0,-4.75D0,-7.3D0,0D0;                            285P    211
102,8,271,273,275,277,279,281,283,285;                               287P    212
142,0,235,287,269,1;                                                 289P    213
144,235,1,1,249,289;                                                 291P    214
128,1,1,1,1,0,0,1,0,0,-2.18D-1,-2.18D-1,1.1118D1,1.1118D1,           293P    215
-2.471257169944D-2,-2.471257169944D-2,1.224712571699D0,              293P    216
1.224712571699D0,1D0,1D0,1D0,1D0,-4.75D0,7.752874283006D-1,          293P    217
-3.818D0,-4.75D0,7.752874283006D-1,7.518D0,-4.75D0,                  293P    218
2.024712571699D0,-3.818D0,-4.75D0,2.024712571699D0,7.518D0,          293P    219
-2.18D-1,1.1118D1,-2.471257169944D-2,1.224712571699D0;               293P    220
110,-4.75D0,2D0,7.3D0,-4.75D0,2D0,-3.6D0;                            295P    221
110,-4.75D0,2D0,-3.6D0,-4.75D0,8D-1,-3.6D0;                          297P    222
102,4,55,81,295,297;                                                 299P    223
110,0D0,0D0,0D0,1.09D1,0D0,0D0;                                      301P    224
110,1.09D1,0D0,0D0,1.09D1,1.2D0,0D0;                                 303P    225
110,1.09D1,1.2D0,0D0,0D0,1.2D0,0D0;                                  305P    226
110,0D0,1.2D0,0D0,0D0,0D0,0D0;                                       307P    227
102,4,301,303,305,307;                                               309P    228
142,0,293,309,299,1;                                                 311P    229
144,293,1,0,311;                                                     313P    230
128,1,1,1,1,0,0,1,0,0,-1.9D-1,-1.9D-1,9.69D0,9.69D0,                 315P    231
-2.471257169944D-2,-2.471257169944D-2,1.224712571699D0,              315P    232
1.224712571699D0,1D0,1D0,1D0,1D0,4.94D0,7.752874283006D-1,           315P    233
-3.6D0,-4.94D0,7.752874283006D-1,-3.6D0,4.94D0,2.024712571699D0,     315P    234
-3.6D0,-4.94D0,2.024712571699D0,-3.6D0,-1.9D-1,9.69D0,               315P    235
-2.471257169944D-2,1.224712571699D0;                                 315P    236
110,-4.75D0,2D0,-3.6D0,4.75D0,2D0,-3.6D0;                            317P    237
110,4.75D0,2D0,-3.6D0,4.75D0,8D-1,-3.6D0;                            319P    238
102,6,61,91,73,75,317,319;                                           321P    239
110,0D0,0D0,0D0,1.6D0,0D0,0D0;                                       323P    240
110,1.6D0,0D0,0D0,3.5D0,0D0,0D0;                                     325P    241
110,3.5D0,0D0,0D0,9.5D0,0D0,0D0;                                     327P    242
110,9.5D0,0D0,0D0,9.5D0,1.2D0,0D0;                                   329P    243
110,9.5D0,1.2D0,0D0,0D0,1.2D0,0D0;                                   331P    244
110,0D0,1.2D0,0D0,0D0,0D0,0D0;                                       333P    245
102,6,323,325,327,329,331,333;                                       335P    246
142,0,315,335,321,1;                                                 337P    247
144,315,1,0,337;                                                     339P    248
128,1,1,1,1,0,0,1,0,0,-2.18D-1,-2.18D-1,1.1118D1,1.1118D1,           341P    249
-2.471257169944D-2,-2.471257169944D-2,1.224712571699D0,              341P    250
1.224712571699D0,1D0,1D0,1D0,1D0,4.75D0,7.752874283006D-1,           341P    251
7.518D0,4.75D0,7.752874283006D-1,-3.818D0,4.75D0,                    341P    252
2.024712571699D0,7.518D0,4.75D0,2.024712571699D0,-3.818D0,           341P    253
-2.18D-1,1.1118D1,-2.471257169944D-2,1.224712571699D0;               341P    254
110,4.75D0,2D0,-3.6D0,4.75D0,2D0,7.3D0;                              343P    255
110,4.75D0,2D0,7.3D0,4.75D0,8D-1,7.3D0;                              345P    256
102,4,59,77,343,345;                                                 347P    257
110,0D0,0D0,0D0,1.09D1,0D0,0D0;                                      349P    258
110,1.09D1,0D0,0D0,1.09D1,1.2D0,0D0;                                 351P    259
110,1.09D1,1.2D0,0D0,0D0,1.2D0,0D0;                                  353P    260
110,0D0,1.2D0,0D0,0D0,0D0,0D0;                                       355P    261
102,4,349,351,353,355;                                               357P    262
142,0,341,357,347,1;                                                 359P    263
144,341,1,0,359;                                                     361P    264
128,1,1,1,1,0,0,1,0,0,-1.9D-1,-1.9D-1,9.69D0,9.69D0,                 363P    265
-2.471257169944D-2,-2.471257169944D-2,1.224712571699D0,              363P    266
1.224712571699D0,1D0,1D0,1D0,1D0,-4.94D0,7.752874283006D-1,          363P    267
7.3D0,4.94D0,7.752874283006D-1,7.3D0,-4.94D0,2.024712571699D0,       363P    268
7.3D0,4.94D0,2.024712571699D0,7.3D0,-1.9D-1,9.69D0,                  363P    269
-2.471257169944D-2,1.224712571699D0;                                 363P    270
110,4.75D0,2D0,7.3D0,-4.75D0,2D0,7.3D0;                              365P    271
110,-4.75D0,2D0,7.3D0,-4.75D0,8D-1,7.3D0;                            367P    272
102,4,57,79,365,367;                                                 369P    273
110,0D0,0D0,0D0,9.5D0,0D0,0D0;                                       371P    274
110,9.5D0,0D0,0D0,9.5D0,1.2D0,0D0;                                   373P    275
110,9.5D0,1.2D0,0D0,0D0,1.2D0,0D0;                                   375P    276
110,0D0,1.2D0,0D0,0D0,0D0,0D0;                                       377P    277
102,4,371,373,375,377;                                               379P    278
142,0,363,379,369,1;                                                 381P    279
144,363,1,0,381;                                                     383P    280
128,1,1,1,1,0,0,1,0,0,-4.94D0,-4.94D0,4.94D0,4.94D0,-7.518D0,        385P    281
-7.518D0,3.818D0,3.818D0,1D0,1D0,1D0,1D0,-4.94D0,2D0,7.518D0,        385P    282
4.94D0,2D0,7.518D0,-4.94D0,2D0,-3.818D0,4.94D0,2D0,-3.818D0,         385P    283
-4.94D0,4.94D0,-7.518D0,3.818D0;                                     385P    284
102,4,83,89,87,85;                                                   387P    285
110,-4.75D0,3.6D0,0D0,-4.75D0,-7.3D0,0D0;                            389P    286
110,-4.75D0,-7.3D0,0D0,4.75D0,-7.3D0,0D0;                            391P    287
110,4.75D0,-7.3D0,0D0,4.75D0,3.6D0,0D0;                              393P    288
110,4.75D0,3.6D0,0D0,-4.75D0,3.6D0,0D0;                              395P    289
102,4,389,391,393,395;                                               397P    290
142,0,385,397,387,1;                                                 399P    291
144,385,1,0,399;                                                     401P    292
128,1,1,1,1,0,0,1,0,0,1.212D0,1.212D0,3.188D0,3.188D0,               403P    293
3.325287428301D0,3.325287428301D0,3.624712571699D0,                  403P    294
3.624712571699D0,1D0,1D0,1D0,1D0,1.212D0,8D-1,-3.325287428301D0,     403P    295
3.188D0,8D-1,-3.325287428301D0,1.212D0,8D-1,-3.624712571699D0,       403P    296
3.188D0,8D-1,-3.624712571699D0,1.212D0,3.188D0,3.325287428301D0,     403P    297
3.624712571699D0;                                                    403P    298
102,4,95,107,103,91;                                                 405P    299
126,8,3,0,0,1,0,0D0,0D0,0D0,0D0,1.666083649410D-1,                   407P    300
3.331525424267D-1,4.996985761655D-1,6.663123532591D-1,               407P    301
8.329464696840D-1,1D0,1D0,1D0,1D0,1D0,1D0,1D0,1D0,1D0,1D0,1D0,       407P    302
1D0,1D0,1.25D0,3.6D0,0D0,1.249932328703D0,3.578173815040D0,0D0,      407P    303
1.255770563369D0,3.534591703763D0,0D0,1.280965433778D0,              407P    304
3.473625577279D0,0D0,1.321118488678D0,3.421276313340D0,0D0,          407P    305
1.373441622081D0,3.381068463049D0,0D0,1.434462370337D0,              407P    306
3.355795794367D0,0D0,1.478114773193D0,3.349931833736D0,0D0,          407P    307
1.5D0,3.35D0,0D0,0D0,1D0,0D0,0D0,1D0;                                407P    308
110,1.5D0,3.35D0,0D0,2.9D0,3.35D0,0D0;                               409P    309
126,8,3,0,0,1,0,0D0,0D0,0D0,0D0,1.670535303160D-1,                   411P    310
3.336876467409D-1,5.003014238345D-1,6.668474575733D-1,               411P    311
8.333916350590D-1,1D0,1D0,1D0,1D0,1D0,1D0,1D0,1D0,1D0,1D0,1D0,       411P    312
1D0,1D0,2.9D0,3.35D0,0D0,2.921885226807D0,3.349931833736D0,0D0,      411P    313
2.965537629663D0,3.355795794367D0,0D0,3.026558377919D0,              411P    314
3.381068463049D0,0D0,3.078881511322D0,3.421276313340D0,0D0,          411P    315
3.119034566222D0,3.473625577279D0,0D0,3.144229436631D0,              411P    316
3.534591703763D0,0D0,3.150067671297D0,3.578173815040D0,0D0,          411P    317
3.15D0,3.6D0,0D0,0D0,1D0,0D0,0D0,1D0;                                411P    318
110,3.15D0,3.6D0,0D0,1.25D0,3.6D0,0D0;                               413P    319
102,4,407,409,411,413;                                               415P    320
142,0,403,415,405,1;                                                 417P    321
144,403,1,0,417;                                                     419P    322
110,1.5D0,8D-1,-3.6D0,1.5D0,1.8D0,-3.6D0;                            421P    323
110,1.75D0,-2.471257169944D-2,-3.6D0,1.75D0,8.247125716994D-1,       423P    324
-3.6D0;                                                              423P    325
120,421,423,1.471946039997D0,4.811239267182D0;                       425P    326
102,5,95,109,29,97,71;                                               427P    327
110,9.709067103894D-1,3.141592653590D0,0D0,9.709067103894D-1,        429P    328
4.712388980385D0,0D0;                                                429P    329
110,9.709067103894D-1,4.712388980385D0,0D0,2.909328961061D-2,        431P    330
4.712388980385D0,0D0;                                                431P    331
110,2.909328961061D-2,4.712388980385D0,0D0,2.909328961061D-2,        433P    332
1.570796326795D0,0D0;                                                433P    333
110,2.909328961061D-2,1.570796326795D0,0D0,9.709067103894D-1,        435P    334
1.570796326795D0,0D0;                                                435P    335
110,9.709067103894D-1,1.570796326795D0,0D0,9.709067103894D-1,        437P    336
3.141592653590D0,0D0;                                                437P    337
102,5,429,431,433,435,437;                                           439P    338
142,0,425,439,427,1;                                                 441P    339
144,425,1,0,441;                                                     443P    340
128,1,1,1,1,0,0,1,0,0,-2.8D-2,-2.8D-2,1.428D0,1.428D0,               445P    341
-8.247125716994D-1,-8.247125716994D-1,2.471257169944D-2,             445P    342
2.471257169944D-2,1D0,1D0,1D0,1D0,2.928D0,-2.471257169944D-2,        445P    343
-3.85D0,1.472D0,-2.471257169944D-2,-3.85D0,2.928D0,                  445P    344
8.247125716994D-1,-3.85D0,1.472D0,8.247125716994D-1,-3.85D0,         445P    345
-2.8D-2,1.428D0,-8.247125716994D-1,2.471257169944D-2;                445P    346
102,4,31,97,67,99;                                                   447P    347
110,0D0,-8D-1,0D0,1.4D0,-8D-1,0D0;                                   449P    348
110,1.4D0,-8D-1,0D0,1.4D0,0D0,0D0;                                   451P    349
110,1.4D0,0D0,0D0,0D0,0D0,0D0;                                       453P    350
110,0D0,0D0,0D0,0D0,-8D-1,0D0;                                       455P    351
102,4,449,451,453,455;                                               457P    352
142,0,445,457,447,1;                                                 459P    353
144,445,1,0,459;                                                     461P    354
110,2.9D0,8D-1,-3.6D0,2.9D0,1.8D0,-3.6D0;                            463P    355
110,3.15D0,-2.471257169944D-2,-3.6D0,3.15D0,8.247125716994D-1,       465P    356
-3.6D0;                                                              465P    357
120,463,465,4.613538693587D0,7.952831920772D0;                       467P    358
102,5,103,65,99,35,105;                                              469P    359
110,9.709067103894D-1,4.712388980385D0,0D0,9.709067103894D-1,        471P    360
6.283185307180D0,0D0;                                                471P    361
110,9.709067103894D-1,6.283185307180D0,0D0,9.709067103894D-1,        473P    362
7.853981633974D0,0D0;                                                473P    363
110,9.709067103894D-1,7.853981633974D0,0D0,2.909328961061D-2,        475P    364
7.853981633974D0,0D0;                                                475P    365
110,2.909328961061D-2,7.853981633974D0,0D0,2.909328961061D-2,        477P    366
4.712388980385D0,0D0;                                                477P    367
110,2.909328961061D-2,4.712388980385D0,0D0,9.709067103894D-1,        479P    368
4.712388980385D0,0D0;                                                479P    369
102,5,471,473,475,477,479;                                           481P    370
142,0,467,481,469,1;                                                 483P    371
144,467,1,0,483;                                                     485P    372
128,1,1,1,1,0,0,1,0,0,-2.8D-2,-2.8D-2,1.428D0,1.428D0,               487P    373
-8.247125716994D-1,-8.247125716994D-1,2.471257169944D-2,             487P    374
2.471257169944D-2,1D0,1D0,1D0,1D0,1.472D0,-2.471257169944D-2,        487P    375
-3.35D0,2.928D0,-2.471257169944D-2,-3.35D0,1.472D0,                  487P    376
8.247125716994D-1,-3.35D0,2.928D0,8.247125716994D-1,-3.35D0,         487P    377
-2.8D-2,1.428D0,-8.247125716994D-1,2.471257169944D-2;                487P    378
110,2.9D0,8D-1,-3.35D0,1.5D0,8D-1,-3.35D0;                           489P    379
102,4,489,109,37,105;                                                491P    380
110,1.4D0,0D0,0D0,0D0,0D0,0D0;                                       493P    381
110,0D0,0D0,0D0,0D0,-8D-1,0D0;                                       495P    382
110,0D0,-8D-1,0D0,1.4D0,-8D-1,0D0;                                   497P    383
110,1.4D0,-8D-1,0D0,1.4D0,0D0,0D0;                                   499P    384
102,4,493,495,497,499;                                               501P    385
142,0,487,501,491,1;                                                 503P    386
144,487,1,0,503;                                                     505P    387
S      1G      4D    506P    387                                        T      1
